<?xml version="1.0" standalone="no"?>
        <!DOCTYPE svg PUBLIC "-//W3C//DTD SVG 1.1//EN" 
        "http://www.w3.org/Graphics/SVG/1.1/DTD/svg11.dtd"><svg id="changeColor" fill="#DC7633" xmlns="http://www.w3.org/2000/svg" xmlns:xlink="http://www.w3.org/1999/xlink" width="200" zoomAndPan="magnify" viewBox="0 0 375 374.9999" height="200" preserveAspectRatio="xMidYMid meet" version="1.0"><defs><path id="pathAttribute" d="M 24.519531 24.519531 L 356.019531 24.519531 L 356.019531 356.019531 L 24.519531 356.019531 Z M 24.519531 24.519531 " clip-rule="nonzero"></path></defs><g><path id="pathAttribute" d="M 307.472656 73.0625 C 276.167969 41.757812 234.542969 24.519531 190.269531 24.519531 C 145.992188 24.519531 104.371094 41.757812 73.0625 73.0625 C 41.757812 104.371094 24.519531 145.996094 24.519531 190.269531 C 24.519531 234.542969 41.757812 276.167969 73.0625 307.472656 C 104.371094 338.78125 145.992188 356.019531 190.269531 356.019531 C 234.542969 356.019531 276.167969 338.78125 307.472656 307.472656 C 338.78125 276.167969 356.019531 234.542969 356.019531 190.269531 C 356.019531 145.996094 338.78125 104.371094 307.472656 73.0625 Z M 190.269531 351.78125 C 101.207031 351.78125 28.753906 279.332031 28.753906 190.269531 C 28.753906 101.207031 101.207031 28.757812 190.269531 28.757812 C 279.328125 28.757812 351.78125 101.207031 351.78125 190.269531 C 351.78125 279.332031 279.328125 351.78125 190.269531 351.78125 Z M 190.269531 351.78125 " fill-opacity="1" fill-rule="nonzero"></path></g><path id="pathAttribute" d="M 300.394531 80.144531 C 270.976562 50.726562 231.867188 34.53125 190.269531 34.53125 C 148.664062 34.53125 109.554688 50.726562 80.144531 80.144531 C 50.726562 109.5625 34.53125 148.671875 34.53125 190.269531 C 34.53125 231.867188 50.726562 270.984375 80.144531 300.394531 C 109.5625 329.8125 148.671875 346.007812 190.269531 346.007812 C 231.871094 346.007812 270.984375 329.8125 300.394531 300.394531 C 329.8125 270.976562 346.007812 231.867188 346.007812 190.269531 C 346.007812 148.671875 329.8125 109.554688 300.394531 80.144531 Z M 190.269531 336.128906 C 109.839844 336.128906 44.410156 270.699219 44.410156 190.269531 C 44.410156 109.839844 109.839844 44.410156 190.269531 44.410156 C 270.699219 44.410156 336.128906 109.839844 336.128906 190.269531 C 336.128906 270.699219 270.699219 336.128906 190.269531 336.128906 Z M 190.269531 336.128906 " fill-opacity="1" fill-rule="nonzero"></path><g id="inner-icon" transform="translate(85, 75)"> <svg xmlns="http://www.w3.org/2000/svg" width="199.8" height="199.8" fill="currentColor" class="bi bi-cloud-fog2" viewBox="0 0 16 16" id="IconChangeColor"> <path d="M8.5 4a4.002 4.002 0 0 0-3.8 2.745.5.5 0 1 1-.949-.313 5.002 5.002 0 0 1 9.654.595A3 3 0 0 1 13 13H.5a.5.5 0 0 1 0-1H13a2 2 0 0 0 .001-4h-.026a.5.5 0 0 1-.5-.445A4 4 0 0 0 8.5 4zM0 8.5A.5.5 0 0 1 .5 8h7a.5.5 0 0 1 0 1h-7a.5.5 0 0 1-.5-.5zm0 2a.5.5 0 0 1 .5-.5h9a.5.5 0 0 1 0 1h-9a.5.5 0 0 1-.5-.5z" id="mainIconPathAttribute"></path> </svg> </g></svg>